# Blender v2.60 (sub 0) OBJ File: 'stick.blend'
# www.blender.org
mtllib stick.mtl
o StopaLewa_Cube.002
v -0.750000 -1.000000 -0.250000
v -0.750000 -1.000000 0.250000
v -1.250000 -1.000000 0.250000
v -1.250000 -1.000000 -0.250000
v -0.750000 0.000000 -0.250000
v -0.750000 0.000000 0.250000
v -1.250000 0.000000 0.250000
v -1.250000 0.000000 -0.250000
vn 0.000000 -1.000000 0.000000
vn 0.000000 1.000000 0.000000
vn 1.000000 0.000000 0.000000
vn -0.000000 -0.000000 1.000000
vn -1.000000 -0.000000 -0.000000
vn 0.000000 0.000000 -1.000000
usemtl 
s off
f 1//1 2//1 3//1
f 1//1 3//1 4//1
f 5//2 8//2 7//2
f 5//2 7//2 6//2
f 1//3 5//3 6//3
f 1//3 6//3 2//3
f 2//4 6//4 7//4
f 2//4 7//4 3//4
f 3//5 7//5 8//5
f 3//5 8//5 4//5
f 5//6 1//6 4//6
f 5//6 4//6 8//6
o StopaPrawa_Cube.003
v 1.250000 -1.000000 -0.250000
v 1.250000 -1.000000 0.250000
v 0.750000 -1.000000 0.250000
v 0.750000 -1.000000 -0.250000
v 1.250000 0.000000 -0.250000
v 1.250000 0.000000 0.250000
v 0.750000 0.000000 0.250000
v 0.750000 0.000000 -0.250000
usemtl 
s off
f 9//1 10//1 11//1
f 9//1 11//1 12//1
f 13//2 16//2 15//2
f 13//2 15//2 14//2
f 9//3 13//3 14//3
f 9//3 14//3 10//3
f 10//4 14//4 15//4
f 10//4 15//4 11//4
f 11//5 15//5 16//5
f 11//5 16//5 12//5
f 13//6 9//6 12//6
f 13//6 12//6 16//6
o UdoPrawe_Cube.004
v 1.250000 0.000000 -0.250000
v 1.250000 0.000000 0.250000
v 0.750000 0.000000 0.250000
v 0.750000 0.000000 -0.250000
v 1.250000 1.000000 -0.250000
v 1.250000 1.000000 0.250000
v 0.750000 1.000000 0.250000
v 0.750000 1.000000 -0.250000
usemtl 
s off
f 17//1 18//1 19//1
f 17//1 19//1 20//1
f 21//2 24//2 23//2
f 21//2 23//2 22//2
f 17//3 21//3 22//3
f 17//3 22//3 18//3
f 18//4 22//4 23//4
f 18//4 23//4 19//4
f 19//5 23//5 24//5
f 19//5 24//5 20//5
f 21//6 17//6 20//6
f 21//6 20//6 24//6
o UdoLewe_Cube.005
v -0.750000 0.000000 -0.250000
v -0.750000 0.000000 0.250000
v -1.250000 0.000000 0.250000
v -1.250000 0.000000 -0.250000
v -0.750000 1.000000 -0.250000
v -0.750000 1.000000 0.250000
v -1.250000 1.000000 0.250000
v -1.250000 1.000000 -0.250000
usemtl 
s off
f 25//1 26//1 27//1
f 25//1 27//1 28//1
f 29//2 32//2 31//2
f 29//2 31//2 30//2
f 25//3 29//3 30//3
f 25//3 30//3 26//3
f 26//4 30//4 31//4
f 26//4 31//4 27//4
f 27//5 31//5 32//5
f 27//5 32//5 28//5
f 29//6 25//6 28//6
f 29//6 28//6 32//6
o Miednica_Cube.007
v -1.250000 0.750000 -0.250000
v -1.250000 0.750000 0.250000
v -1.250000 1.250000 0.250000
v -1.250000 1.250000 -0.250000
v 1.250000 0.750000 -0.250000
v 1.250000 0.750000 0.250000
v 1.250000 1.250000 0.250000
v 1.250000 1.250000 -0.250000
usemtl 
s off
f 33//5 34//5 35//5
f 33//5 35//5 36//5
f 37//3 40//3 39//3
f 37//3 39//3 38//3
f 33//1 37//1 38//1
f 33//1 38//1 34//1
f 34//4 38//4 39//4
f 34//4 39//4 35//4
f 35//2 39//2 40//2
f 35//2 40//2 36//2
f 37//6 33//6 36//6
f 37//6 36//6 40//6
o Tulow_Cube.008
v 0.250000 1.000000 -0.250000
v 0.250000 1.000000 0.250000
v -0.250000 1.000000 0.250000
v -0.250000 1.000000 -0.250000
v 0.250000 3.000000 -0.250000
v 0.250000 3.000000 0.250000
v -0.250000 3.000000 0.250000
v -0.250000 3.000000 -0.250000
usemtl 
s off
f 41//1 42//1 43//1
f 41//1 43//1 44//1
f 45//2 48//2 47//2
f 45//2 47//2 46//2
f 41//3 45//3 46//3
f 41//3 46//3 42//3
f 42//4 46//4 47//4
f 42//4 47//4 43//4
f 43//5 47//5 48//5
f 43//5 48//5 44//5
f 45//6 41//6 44//6
f 45//6 44//6 48//6
o RamieLewe_Cube.010
v -1.000000 2.750000 -0.250000
v -1.000000 2.750000 0.250000
v -1.000000 3.250000 0.250000
v -1.000000 3.250000 -0.250000
v 0.000000 2.750000 -0.250000
v 0.000000 2.750000 0.250000
v -0.000000 3.250000 0.250000
v -0.000000 3.250000 -0.250000
usemtl 
s off
f 49//5 50//5 51//5
f 49//5 51//5 52//5
f 53//3 56//3 55//3
f 53//3 55//3 54//3
f 49//1 53//1 54//1
f 49//1 54//1 50//1
f 50//4 54//4 55//4
f 50//4 55//4 51//4
f 51//2 55//2 56//2
f 51//2 56//2 52//2
f 53//6 49//6 52//6
f 53//6 52//6 56//6
o DlonLewa_Cube.011
v -2.000000 2.750000 -0.250000
v -2.000000 2.750000 0.250000
v -2.000000 3.250000 0.250000
v -2.000000 3.250000 -0.250000
v -1.000000 2.750000 -0.250000
v -1.000000 2.750000 0.250000
v -1.000000 3.250000 0.250000
v -1.000000 3.250000 -0.250000
usemtl 
s off
f 57//5 58//5 59//5
f 57//5 59//5 60//5
f 61//3 64//3 63//3
f 61//3 63//3 62//3
f 57//1 61//1 62//1
f 57//1 62//1 58//1
f 58//4 62//4 63//4
f 58//4 63//4 59//4
f 59//2 63//2 64//2
f 59//2 64//2 60//2
f 61//6 57//6 60//6
f 61//6 60//6 64//6
o RamiePrawe_Cube.012
v 0.000000 2.750000 -0.250000
v 0.000000 2.750000 0.250000
v 0.000000 3.250000 0.250000
v 0.000000 3.250000 -0.250000
v 1.000000 2.750000 -0.250000
v 1.000000 2.750000 0.250000
v 1.000000 3.250000 0.250000
v 1.000000 3.250000 -0.250000
usemtl 
s off
f 65//5 66//5 67//5
f 65//5 67//5 68//5
f 69//3 72//3 71//3
f 69//3 71//3 70//3
f 65//1 69//1 70//1
f 65//1 70//1 66//1
f 66//4 70//4 71//4
f 66//4 71//4 67//4
f 67//2 71//2 72//2
f 67//2 72//2 68//2
f 69//6 65//6 68//6
f 69//6 68//6 72//6
o DlonPrawa_Cube.013
v 1.000000 2.750000 -0.250000
v 1.000000 2.750000 0.250000
v 1.000000 3.250000 0.250000
v 1.000000 3.250000 -0.250000
v 2.000000 2.750000 -0.250000
v 2.000000 2.750000 0.250000
v 2.000000 3.250000 0.250000
v 2.000000 3.250000 -0.250000
usemtl 
s off
f 73//5 74//5 75//5
f 73//5 75//5 76//5
f 77//3 80//3 79//3
f 77//3 79//3 78//3
f 73//1 77//1 78//1
f 73//1 78//1 74//1
f 74//4 78//4 79//4
f 74//4 79//4 75//4
f 75//2 79//2 80//2
f 75//2 80//2 76//2
f 77//6 73//6 76//6
f 77//6 76//6 80//6
o Glowa_Cube.014
v 0.250000 3.000000 -0.250000
v 0.250000 3.000000 0.250000
v -0.250000 3.000000 0.250000
v -0.250000 3.000000 -0.250000
v 0.250000 4.000000 -0.250000
v 0.250000 4.000000 0.250000
v -0.250000 4.000000 0.250000
v -0.250000 4.000000 -0.250000
usemtl 
s off
f 81//1 82//1 83//1
f 81//1 83//1 84//1
f 85//2 88//2 87//2
f 85//2 87//2 86//2
f 81//3 85//3 86//3
f 81//3 86//3 82//3
f 82//4 86//4 87//4
f 82//4 87//4 83//4
f 83//5 87//5 88//5
f 83//5 88//5 84//5
f 85//6 81//6 84//6
f 85//6 84//6 88//6
